<?xml version="1.0" encoding="utf-8"?>
<!-- Generator: Adobe Illustrator 23.0.2, SVG Export Plug-In . SVG Version: 6.00 Build 0)  -->
<svg version="1.1" id="Layer_1" xmlns="http://www.w3.org/2000/svg" xmlns:xlink="http://www.w3.org/1999/xlink" x="0px" y="0px"
	 viewBox="0 0 512 512" style="enable-background:new 0 0 512 512;" xml:space="preserve">
<g>
	<path d="M457.3,32.2h-27.6V15.1C429.8,6.8,423,0,414.7,0s-15.1,6.8-15.1,15.1v17.1h-29.7V15.1c0-8.3-6.8-15.1-15.1-15.1
		c-8.3,0-15.1,6.8-15.1,15.1v17.1h-167V15.1c0-8.3-6.8-15.1-15.1-15.1s-15.1,6.8-15.1,15.1v17.1h-29.7V15.1C112.8,6.8,106,0,97.7,0
		S82.6,6.8,82.6,15.1v17.1H54.9C27.9,32.2,6,54.1,6,81.1v382c0,27,21.9,48.9,48.9,48.9h402.5c27,0,48.9-21.9,48.9-48.9v-382
		C506.2,54.1,484.3,32.2,457.3,32.2z M476,463.1c0,10.3-8.4,18.7-18.7,18.7H54.9c-10.3,0-18.7-8.4-18.7-18.7V157.9H476V463.1z
		 M36.2,81.1c0-10.3,8.4-18.7,18.7-18.7h27.6v17.1c0,8.3,6.8,15.1,15.1,15.1s15.1-6.8,15.1-15.1V62.4h29.7v17.1
		c0,8.3,6.8,15.1,15.1,15.1s15.1-6.8,15.1-15.1V62.4h166.9v17.1c0,8.3,6.8,15.1,15.1,15.1c8.3,0,15.1-6.8,15.1-15.1V62.4h29.7v17.1
		c0,8.3,6.8,15.1,15.1,15.1c8.4,0,15.1-6.8,15.1-15.1V62.4h27.6c10.3,0,18.7,8.4,18.7,18.7v46.6H36.2V81.1z"/>
</g>
<g>
	<path d="M204.7,414.9c-4.7,0-9.4-1.5-13.4-4.4c-7.2-5.2-10.7-13.9-9.2-22.6l7.7-45.2l-32.9-32c-6.4-6.3-8.6-15.3-5.8-23.7
		c2.8-8.3,9.9-14.3,18.6-15.5l45.4-6.6l20.3-41.2c4-7.9,11.9-12.8,20.7-12.8c0,0,0.1,0,0.1,0c8.8,0,16.7,5,20.5,12.9l20.3,41.2
		l45.5,6.7c8.8,1.3,15.9,7.4,18.6,15.8c2.7,8.4,0.4,17.3-5.9,23.5l-32.9,32l7.7,45.3c1.5,8.6-2,17.2-9.1,22.4
		c-7.1,5.2-16.4,5.9-24.2,1.9l-40.6-21.4l-40.7,21.4C212,414,208.4,414.9,204.7,414.9z M305.4,392.1
		C305.4,392.1,305.4,392.1,305.4,392.1L305.4,392.1z M206.7,392.1L206.7,392.1C206.7,392.1,206.7,392.1,206.7,392.1z M203.7,390.1
		C203.7,390.1,203.7,390.1,203.7,390.1L203.7,390.1z M177.2,295.5l30.8,30c5.4,5.2,7.9,12.9,6.6,20.4l-7.2,42.3l38-20
		c6.7-3.5,14.7-3.5,21.4,0c0,0,0.1,0,0.1,0.1l37.9,20l-7.2-42.3c-1.3-7.5,1.2-15.1,6.7-20.4l30.7-29.9l-42.3-6.2
		c-7.5-1-14.2-5.8-17.5-12.6l-19-38.5l-19,38.6c-3.2,6.7-9.7,11.4-17.3,12.5L177.2,295.5z M190.6,343.4
		C190.6,343.4,190.6,343.4,190.6,343.4L190.6,343.4z M321.5,343.3L321.5,343.3C321.5,343.4,321.5,343.3,321.5,343.3z M190,341.6
		C190,341.6,190,341.6,190,341.6L190,341.6z M322.1,341.5L322.1,341.5C322.1,341.5,322.1,341.5,322.1,341.5z M173.2,296.1
		L173.2,296.1C173.2,296.1,173.2,296.1,173.2,296.1z M337.8,292.6C337.8,292.6,337.8,292.6,337.8,292.6L337.8,292.6z M214.6,265.7
		C214.6,265.7,214.6,265.7,214.6,265.7L214.6,265.7z M297.5,265.6L297.5,265.6C297.5,265.7,297.5,265.7,297.5,265.6z M295.7,264.5
		C295.7,264.5,295.7,264.5,295.7,264.5C295.7,264.5,295.7,264.5,295.7,264.5z"/>
</g>
</svg>
