<?xml version="1.0" encoding="utf-8"?>
<!-- Generator: Adobe Illustrator 23.0.2, SVG Export Plug-In . SVG Version: 6.00 Build 0)  -->
<svg version="1.1" id="Capa_1" xmlns="http://www.w3.org/2000/svg" xmlns:xlink="http://www.w3.org/1999/xlink" x="0px" y="0px"
	 viewBox="0 0 512 512" style="enable-background:new 0 0 512 512;" xml:space="preserve">
<g>
	<g>
		<g>
			<path d="M290.4,432l-109-168.5V128c0-5.9-4.8-10.7-10.7-10.7h-53.3c-5.9,0-10.7,4.8-10.7,10.7v135.8l-99.4,169
				C2.5,440.8,0,450,0,459.4c0,29,23.5,52.6,52.6,52.6h194.2c10,0,19.8-2.9,28.1-8.3C299,488.1,305.9,456,290.4,432z M246.8,490.7
				H52.6c-5.6,0-11.1-1.5-15.9-4.3c-14.9-8.8-19.8-27.9-11.1-42.8l100.9-171.5c1-1.6,1.5-3.5,1.5-5.4v-128h32v128
				c0,2.1,0.6,4.1,1.7,5.8l110.7,171.1c3.2,4.9,4.9,10.7,4.9,16.6C277.3,477,263.7,490.7,246.8,490.7z"/>
		</g>
	</g>
</g>
<g>
	<g>
		<g>
			<path d="M486.3,245.3H320c-23.6,0-42.7,19.1-42.7,42.7v170.7c0,29.4,23.9,53.3,53.3,53.3h96c29.4,0,53.3-23.9,53.3-53.3v-145
				l24.5-24.5c4.8-4.8,7.5-11.4,7.5-18.2C512,256.9,500.5,245.3,486.3,245.3z M489.4,274.2l-27.6,27.6c-2,2-3.1,4.7-3.1,7.5v149.3
				c0,17.7-14.3,32-32,32h-96c-17.7,0-32-14.3-32-32V288c0-11.8,9.6-21.3,21.3-21.3h166.3c1.2,0,2.3,0.5,3.1,1.3
				C491.1,269.7,491.1,272.5,489.4,274.2z"/>
		</g>
	</g>
</g>
<g>
	<g>
		<g>
			<path d="M453.3,149.3c-20.6,0-37.3,16.7-37.3,37.3s16.7,37.3,37.3,37.3c20.6,0,37.3-16.7,37.3-37.3
				C490.7,166,474,149.3,453.3,149.3z M453.3,202.7c-8.8,0-16-7.2-16-16s7.2-16,16-16s16,7.2,16,16S462.2,202.7,453.3,202.7z"/>
		</g>
	</g>
</g>
<g>
	<g>
		<g>
			<path d="M416,74.7c-17.7,0-32,14.3-32,32s14.3,32,32,32s32-14.3,32-32S433.7,74.7,416,74.7z M416,117.3
				c-5.9,0-10.7-4.8-10.7-10.7S410.1,96,416,96s10.7,4.8,10.7,10.7S421.9,117.3,416,117.3z"/>
		</g>
	</g>
</g>
<g>
	<g>
		<g>
			<path d="M37.3,85.3C16.7,85.3,0,102,0,122.7C0,143.3,16.7,160,37.3,160s37.3-16.7,37.3-37.3C74.7,102,58,85.3,37.3,85.3z
				 M37.3,138.7c-8.8,0-16-7.2-16-16s7.2-16,16-16s16,7.2,16,16S46.2,138.7,37.3,138.7z"/>
		</g>
	</g>
</g>
<g>
	<g>
		<g>
			<path d="M85.3,10.7c-17.7,0-32,14.3-32,32s14.3,32,32,32s32-14.3,32-32S103,10.7,85.3,10.7z M85.3,53.3
				c-5.9,0-10.7-4.8-10.7-10.7s4.8-10.7,10.7-10.7S96,36.8,96,42.7S91.2,53.3,85.3,53.3z"/>
		</g>
	</g>
</g>
<g>
	<g>
		<g>
			<path d="M330.7,309.3h10.7c5.9,0,10.7,4.8,10.7,10.7l0,0c0,5.9-4.8,10.7-10.7,10.7h-10.7c-5.9,0-10.7-4.8-10.7-10.7l0,0
				C320,314.1,324.8,309.3,330.7,309.3z"/>
		</g>
	</g>
</g>
<g>
	<g>
		<g>
			<path d="M330.7,352L330.7,352c5.9,0,10.7,4.8,10.7,10.7l0,0c0,5.9-4.8,10.7-10.7,10.7l0,0c-5.9,0-10.7-4.8-10.7-10.7l0,0
				C320,356.8,324.8,352,330.7,352z"/>
		</g>
	</g>
</g>
<g>
	<g>
		<g>
			<path d="M330.7,394.7h10.7c5.9,0,10.7,4.8,10.7,10.7l0,0c0,5.9-4.8,10.7-10.7,10.7h-10.7c-5.9,0-10.7-4.8-10.7-10.7l0,0
				C320,399.4,324.8,394.7,330.7,394.7z"/>
		</g>
	</g>
</g>
<g>
	<g>
		<g>
			<path d="M330.7,437.3L330.7,437.3c5.9,0,10.7,4.8,10.7,10.7l0,0c0,5.9-4.8,10.7-10.7,10.7l0,0c-5.9,0-10.7-4.8-10.7-10.7l0,0
				C320,442.1,324.8,437.3,330.7,437.3z"/>
		</g>
	</g>
</g>
<g>
	<g>
		<g>
			<path d="M32,192L32,192c5.9,0,10.7,4.8,10.7,10.7l0,0c0,5.9-4.8,10.7-10.7,10.7l0,0c-5.9,0-10.7-4.8-10.7-10.7l0,0
				C21.3,196.8,26.1,192,32,192z"/>
		</g>
	</g>
</g>
<g>
	<g>
		<g>
			<path d="M185.5,355.1L185.5,355.1c5.9,0,10.7,4.8,10.7,10.7l0,0c0,5.9-4.8,10.7-10.7,10.7l0,0c-5.9,0-10.7-4.8-10.7-10.7l0,0
				C174.9,359.9,179.6,355.1,185.5,355.1z"/>
		</g>
	</g>
</g>
<g>
	<g>
		<g>
			<path d="M64,245.3L64,245.3c5.9,0,10.7,4.8,10.7,10.7l0,0c0,5.9-4.8,10.7-10.7,10.7l0,0c-5.9,0-10.7-4.8-10.7-10.7l0,0
				C53.3,250.1,58.1,245.3,64,245.3z"/>
		</g>
	</g>
</g>
<g>
	<g>
		<g>
			<path d="M202.7,390.3L202.7,390.3c5.9,0,10.7,4.8,10.7,10.7l0,0c0,5.9-4.8,10.7-10.7,10.7l0,0c-5.9,0-10.7-4.8-10.7-10.7l0,0
				C192,395,196.8,390.3,202.7,390.3z"/>
		</g>
	</g>
</g>
<g>
	<g>
		<g>
			<path d="M245.3,288L245.3,288c5.9,0,10.7,4.8,10.7,10.7l0,0c0,5.9-4.8,10.7-10.7,10.7l0,0c-5.9,0-10.7-4.8-10.7-10.7l0,0
				C234.7,292.8,239.4,288,245.3,288z"/>
		</g>
	</g>
</g>
<g>
	<g>
		<g>
			<path d="M224,245.3L224,245.3c5.9,0,10.7,4.8,10.7,10.7l0,0c0,5.9-4.8,10.7-10.7,10.7l0,0c-5.9,0-10.7-4.8-10.7-10.7l0,0
				C213.3,250.1,218.1,245.3,224,245.3z"/>
		</g>
	</g>
</g>
<g>
	<g>
		<g>
			<path d="M213.3,202.7L213.3,202.7c5.9,0,10.7,4.8,10.7,10.7l0,0c0,5.9-4.8,10.7-10.7,10.7l0,0c-5.9,0-10.7-4.8-10.7-10.7l0,0
				C202.7,207.4,207.4,202.7,213.3,202.7z"/>
		</g>
	</g>
</g>
<g>
	<path d="M397.5,217.3L397.5,217.3c-0.1-0.1-0.1-0.2-0.2-0.3l0,0c-25.1-31.1-59.8-53.1-98.6-62.6V10.7C298.7,4.8,293.9,0,288,0
		h-74.7c-5.9,0-10.7,4.8-10.7,10.7v146.9c-13,4-25.5,9.5-37.3,16.3l10.7,18.5c12.5-7.2,26-12.7,40-16.4c4.7-1.2,8-5.5,8-10.3V21.3
		h53.3v141.8c0,5.1,3.6,9.5,8.7,10.5c37.4,7.1,71,27.4,94.8,57.1l0,0l0,0l0,0c2,2.3,4.9,3.8,8.2,3.8c5.9,0,10.7-4.8,10.7-10.7
		C399.7,221.4,398.9,219.1,397.5,217.3z"/>
</g>
<g>
	<path d="M194.4,452.8c-27.7,0-41.9-15.3-53.2-27.6c-9.4-10.2-15.2-16-25.1-16.5c-0.6,0-1.3-0.1-1.9-0.1
		c-26.3,0-36.4,30.1-36.6,30.4c-2.1,6.3-8.8,9.7-15.1,7.7c-6.3-2.1-9.7-8.8-7.7-15.1c5.6-17.1,25.9-48.8,62.5-46.8
		c20.1,1.1,31.4,13.4,41.4,24.2c10.3,11.1,18.4,19.9,35.6,19.9c12.4,0,22.3-16.4,22.3-16.6c3.3-5.8,10.6-7.8,16.3-4.6
		c5.8,3.3,7.8,10.6,4.6,16.3C237,425.2,221.1,452.8,194.4,452.8z"/>
</g>
</svg>
