<?xml version="1.0" encoding="utf-8"?>
<!-- Generator: Adobe Illustrator 23.0.2, SVG Export Plug-In . SVG Version: 6.00 Build 0)  -->
<svg version="1.1" id="Layer_1" xmlns="http://www.w3.org/2000/svg" xmlns:xlink="http://www.w3.org/1999/xlink" x="0px" y="0px"
	 viewBox="0 0 503.6 503.6" style="enable-background:new 0 0 503.6 503.6;" xml:space="preserve">
<g transform="translate(1 1)">
	<g>
		<g>
			<path d="M104.6,418.2h-1.2V397c0-0.2-0.2-0.4-0.4-0.4H83c-0.2,0-0.4,0.2-0.4,0.4v21.2h-1.2c-0.2,0-0.4,0.2-0.4,0.4v1.6
				c0,0.2,0.2,0.4,0.4,0.4h23.2c0.2,0,0.4-0.2,0.4-0.4v-1.6C105,418.4,104.8,418.2,104.6,418.2z M83.4,397.4h19.2v20.8h-6v-4.4
				c0-0.2-0.2-0.4-0.4-0.4H93h-3.2c-0.2,0-0.4,0.2-0.4,0.4v4.4h-6V397.4z M90.2,418.2v-4h2.4v4H90.2z M93.4,414.2h2.4v4h-2.4V414.2z
				 M104.2,419.8H81.8V419H83h6.8H93h3.2h6.8h1.2L104.2,419.8L104.2,419.8z"/>
			<path d="M88.6,398.6h-3.2c-0.2,0-0.4,0.2-0.4,0.4v2.4c0,0.2,0.2,0.4,0.4,0.4h3.2c0.2,0,0.4-0.2,0.4-0.4V399
				C89,398.8,88.8,398.6,88.6,398.6z M88.2,401h-2.4v-1.6h2.4V401z"/>
			<path d="M88.6,403h-3.2c-0.2,0-0.4,0.2-0.4,0.4v2.4c0,0.2,0.2,0.4,0.4,0.4h3.2c0.2,0,0.4-0.2,0.4-0.4v-2.4
				C89,403.2,88.8,403,88.6,403z M88.2,405.4h-2.4v-1.6h2.4V405.4z"/>
			<path d="M91.4,406.2h3.2c0.2,0,0.4-0.2,0.4-0.4v-2.4c0-0.2-0.2-0.4-0.4-0.4h-3.2c-0.2,0-0.4,0.2-0.4,0.4v2.4
				C91,406,91.2,406.2,91.4,406.2z M91.8,403.8h2.4v1.6h-2.4L91.8,403.8L91.8,403.8z"/>
			<path d="M97.4,406.2h3.2c0.2,0,0.4-0.2,0.4-0.4v-2.4c0-0.2-0.2-0.4-0.4-0.4h-3.2c-0.2,0-0.4,0.2-0.4,0.4v2.4
				C97,406,97.2,406.2,97.4,406.2z M97.8,403.8h2.4v1.6h-2.4V403.8z"/>
			<path d="M91.4,410.6h3.2c0.2,0,0.4-0.2,0.4-0.4v-2.4c0-0.2-0.2-0.4-0.4-0.4h-3.2c-0.2,0-0.4,0.2-0.4,0.4v2.4
				C91,410.4,91.2,410.6,91.4,410.6z M91.8,408.2h2.4v1.6h-2.4L91.8,408.2L91.8,408.2z"/>
			<path d="M97.4,410.6h3.2c0.2,0,0.4-0.2,0.4-0.4v-2.4c0-0.2-0.2-0.4-0.4-0.4h-3.2c-0.2,0-0.4,0.2-0.4,0.4v2.4
				C97,410.4,97.2,410.6,97.4,410.6z M97.8,408.2h2.4v1.6h-2.4V408.2z"/>
			<path d="M88.6,407.4h-3.2c-0.2,0-0.4,0.2-0.4,0.4v2.4c0,0.2,0.2,0.4,0.4,0.4h3.2c0.2,0,0.4-0.2,0.4-0.4v-2.4
				C89,407.6,88.8,407.4,88.6,407.4z M88.2,409.8h-2.4v-1.6h2.4V409.8z"/>
			<path d="M91.4,401.8h3.2c0.2,0,0.4-0.2,0.4-0.4V399c0-0.2-0.2-0.4-0.4-0.4h-3.2c-0.2,0-0.4,0.2-0.4,0.4v2.4
				C91,401.6,91.2,401.8,91.4,401.8z M91.8,399.4h2.4v1.6h-2.4L91.8,399.4L91.8,399.4z"/>
			<path d="M97.4,401.8h3.2c0.2,0,0.4-0.2,0.4-0.4V399c0-0.2-0.2-0.4-0.4-0.4h-3.2c-0.2,0-0.4,0.2-0.4,0.4v2.4
				C97,401.6,97.2,401.8,97.4,401.8z M97.8,399.4h2.4v1.6h-2.4V399.4z"/>
			<path d="M90.6,412.6h4.8c0.2,0,0.4-0.2,0.4-0.4c0-0.2-0.2-0.4-0.4-0.4h-4.8c-0.2,0-0.4,0.2-0.4,0.4
				C90.2,412.4,90.4,412.6,90.6,412.6z"/>
		</g>
	</g>
</g>
</svg>
