<?xml version="1.0" encoding="utf-8"?>
<!-- Generator: Adobe Illustrator 23.0.2, SVG Export Plug-In . SVG Version: 6.00 Build 0)  -->
<svg version="1.1" id="Capa_1" xmlns="http://www.w3.org/2000/svg" xmlns:xlink="http://www.w3.org/1999/xlink" x="0px" y="0px"
	 viewBox="0 0 512 512" style="enable-background:new 0 0 512 512;" xml:space="preserve">
<path d="M321.8,25c44.1,0,85.6,17.2,116.8,48.4S487,146.1,487,190.2s-17.2,85.6-48.4,116.8c-31.2,31.2-72.7,48.4-116.8,48.4
	s-85.6-17.2-116.8-48.4c-31.2-31.2-48.4-72.7-48.4-116.8s17.2-85.6,48.4-116.8S277.6,25,321.8,25 M321.8,0
	c-48.7,0-97.4,18.6-134.5,55.7c-74.3,74.3-74.3,194.7,0,269c37.1,37.1,85.8,55.7,134.5,55.7s97.4-18.6,134.5-55.7
	c74.3-74.3,74.3-194.7,0-269C419.1,18.6,370.4,0,321.8,0L321.8,0z"/>
<g>
	<line x1="193.7" y1="318.3" x2="12.5" y2="499.5"/>
	<path d="M12.5,512c-3.2,0-6.4-1.2-8.9-3.7c-4.9-4.9-4.9-12.8,0-17.7l181.2-181.2c4.9-4.9,12.8-4.9,17.7,0c4.9,4.9,4.9,12.8,0,17.7
		L21.4,508.3C19,510.8,15.8,512,12.5,512z"/>
</g>
</svg>
