<?xml version="1.0" encoding="iso-8859-1"?>
<!-- Generator: Adobe Illustrator 19.0.0, SVG Export Plug-In . SVG Version: 6.00 Build 0)  -->
<svg version="1.1" id="Layer_1" xmlns="http://www.w3.org/2000/svg" xmlns:xlink="http://www.w3.org/1999/xlink" x="0px" y="0px"
	 viewBox="0 0 512 512" style="enable-background:new 0 0 512 512;" xml:space="preserve">
<g>
	<g>
		<path d="M461.913,139.13h-26.476L306.761,10.455c-6.519-6.519-17.091-6.519-23.611,0L244.87,48.737l-38.282-38.282
			c-6.519-6.519-17.091-6.519-23.611,0L54.302,139.13H16.696C7.475,139.13,0,146.606,0,155.826v333.913
			c0,9.22,7.475,16.696,16.696,16.696H395.13h66.783c27.618,0,50.087-22.469,50.087-50.087v-66.783V256v-66.783
			C512,161.598,489.531,139.13,461.913,139.13z M294.957,45.872l93.259,93.259h-52.952l-66.783-66.783L294.957,45.872z
			 M194.783,45.872l38.282,38.282l54.977,54.977H101.524L194.783,45.872z M411.826,456.348c0,9.206-7.49,16.696-16.696,16.696
			H33.391V172.522h27.826h267.13h66.783c9.206,0,16.696,7.49,16.696,16.696v50.087h-50.087c-46.03,0-83.478,37.448-83.478,83.478
			s37.448,83.478,83.478,83.478h50.087V456.348z M478.609,456.348c0,9.206-7.49,16.696-16.696,16.696h-19.567
			c1.853-5.226,2.872-10.843,2.872-16.696v-50.087h33.391V456.348z M478.609,372.869h-50.087h-66.783
			c-27.618,0-50.087-22.469-50.087-50.087s22.469-50.087,50.087-50.087h66.783h50.087V372.869z M478.609,239.304h-33.391v-50.087
			c0-5.852-1.018-11.47-2.872-16.696h19.567c9.206,0,16.696,7.489,16.696,16.696V239.304z"/>
	</g>
</g>
<g>
	<g>
		<circle cx="361.739" cy="322.783" r="16.696"/>
	</g>
</g>
<g>
</g>
<g>
</g>
<g>
</g>
<g>
</g>
<g>
</g>
<g>
</g>
<g>
</g>
<g>
</g>
<g>
</g>
<g>
</g>
<g>
</g>
<g>
</g>
<g>
</g>
<g>
</g>
<g>
</g>
</svg>
